<?xml version="1.0" encoding="UTF-8" standalone="no"?>
<!-- Created with Inkscape (http://www.inkscape.org/) -->

<svg
   xmlns:dc="http://purl.org/dc/elements/1.1/"
   xmlns:cc="http://creativecommons.org/ns#"
   xmlns:rdf="http://www.w3.org/1999/02/22-rdf-syntax-ns#"
   xmlns:svg="http://www.w3.org/2000/svg"
   xmlns="http://www.w3.org/2000/svg"
   xmlns:sodipodi="http://sodipodi.sourceforge.net/DTD/sodipodi-0.dtd"
   xmlns:inkscape="http://www.inkscape.org/namespaces/inkscape"
   width="500mm"
   height="500mm"
   viewBox="0 0 500 500"
   version="1.1"
   id="svg8"
   inkscape:version="0.92.1 r15371"
   sodipodi:docname="polka_inverted_splitmono.svg">
  <defs
     id="defs2" />
  <sodipodi:namedview
     id="base"
     pagecolor="#ffffff"
     bordercolor="#666666"
     borderopacity="1.0"
     inkscape:pageopacity="0.0"
     inkscape:pageshadow="2"
     inkscape:zoom="0.1767767"
     inkscape:cx="-25.744706"
     inkscape:cy="1205.9928"
     inkscape:document-units="mm"
     inkscape:current-layer="layer1"
     showgrid="true"
     inkscape:window-width="1366"
     inkscape:window-height="715"
     inkscape:window-x="-8"
     inkscape:window-y="-8"
     inkscape:window-maximized="1">
    <inkscape:grid
       type="xygrid"
       id="grid5707" />
  </sodipodi:namedview>
  <metadata
     id="metadata5">
    <rdf:RDF>
      <cc:Work
         rdf:about="">
        <dc:format>image/svg+xml</dc:format>
        <dc:type
           rdf:resource="http://purl.org/dc/dcmitype/StillImage" />
        <dc:title></dc:title>
      </cc:Work>
    </rdf:RDF>
  </metadata>
  <g
     inkscape:label="Layer 1"
     inkscape:groupmode="layer"
     id="layer1"
     style="opacity:1"
     transform="translate(0,203)">
    <g
       id="g4491"
       transform="matrix(2.8573078,0,0,2.8573078,-73.188295,-251.09691)">
      <path
         inkscape:connector-curvature="0"
         id="path6072"
         transform="scale(0.26458333)"
         d="m 524.08789,232.20508 c -1.02425,9.8e-4 -2.05041,0.0105 -3.07617,0.0332 -30.43918,0.27024 -59.92739,10.70414 -85.87305,26.10938 -15.49984,4.60629 -31.06881,-3.93868 -44.58398,-10.7461 -11.49657,-6.29562 -24.8038,-8.37803 -37.49805,-11.19922 -38.57043,-7.61779 -80.47053,-2.36328 -113.82031,19.29688 -30.56918,19.5423 -54.02096,48.78917 -70.86328,80.59766 -10.39596,20.73871 -15.65286,43.29449 -17.19532,66.22265 H 115 v 20 h 625 v -20 h -39.30078 c -3.373,-35.49072 -15.59727,-70.15166 -37.07031,-98.78906 -13.63805,-18.21501 -29.79782,-34.93089 -48.4668,-47.92383 -28.24214,-14.08082 -59.31598,-23.64038 -91.07422,-23.60156 z m -200.94336,13.19531 c 2.625,-0.002 5.2723,0.0684 7.93555,0.19531 0.096,0.77247 0.14831,1.54976 0.15625,2.32813 5.3e-4,2.06317 -0.30879,4.1147 -0.91797,6.08594 -0.20334,0.65591 -0.43925,1.30125 -0.70703,1.93359 -0.53533,1.2666 -1.19619,2.47642 -1.97266,3.61133 -0.38778,0.56665 -0.8037,1.11356 -1.24609,1.63867 -2.2227,2.63968 -5.073,4.67866 -8.28906,5.92969 -0.64048,0.24861 -1.29298,0.46503 -1.95508,0.64843 -0.66199,0.18384 -1.3327,0.33441 -2.00977,0.45118 -1.156,0.19906 -2.32695,0.29905 -3.5,0.29882 -0.68681,4.5e-4 -1.37322,-0.0333 -2.05664,-0.10156 -2.74189,-0.27617 -5.40048,-1.09972 -7.81836,-2.42187 -0.60279,-0.3286 -1.18881,-0.68711 -1.75586,-1.07422 -1.13463,-0.77625 -2.18871,-1.66414 -3.14648,-2.65039 -2.89153,-2.97765 -4.81611,-6.75938 -5.52149,-10.84961 -0.12774,-0.75701 -0.21315,-1.52057 -0.25586,-2.28711 10.65089,-2.48984 21.67311,-3.72751 33.06055,-3.73633 z m 214.23438,0.11328 c 13.26757,1.47473 26.55768,4.59753 39.86914,9.18555 -0.13758,0.41946 -0.28876,0.83439 -0.45313,1.24414 -0.26759,0.6324 -0.56695,1.25101 -0.89648,1.85352 -0.3292,0.60285 -0.68839,1.18888 -1.07617,1.75585 -0.77624,1.13465 -1.66414,2.18873 -2.65039,3.14649 -2.47522,2.40453 -5.51488,4.14867 -8.83985,5.07226 -0.66198,0.18316 -1.33274,0.33309 -2.00976,0.44922 -0.67643,0.11668 -1.35827,0.19945 -2.04297,0.24805 -0.48492,0.0348 -0.97087,0.0524 -1.45703,0.0527 -0.68686,-1.7e-4 -1.37323,-0.0348 -2.05665,-0.10351 -0.68302,-0.0682 -1.36236,-0.17058 -2.03515,-0.30664 -0.67351,-0.13716 -1.33971,-0.30795 -1.99609,-0.51172 -0.65587,-0.20202 -1.30121,-0.43669 -1.9336,-0.70313 -1.26603,-0.5361 -2.47521,-1.19761 -3.60937,-1.9746 -0.56735,-0.38712 -1.11482,-0.80234 -1.64063,-1.24415 -1.05044,-0.88575 -2.00967,-1.87441 -2.86328,-2.95117 -1.71318,-2.15878 -2.97573,-4.63938 -3.71289,-7.29492 -0.18369,-0.66134 -0.3345,-1.33144 -0.45117,-2.00781 -0.11679,-0.67708 -0.19967,-1.35957 -0.24805,-2.04492 -0.034,-0.48492 -0.0527,-0.97091 -0.0527,-1.45703 2.6e-4,-0.6862 0.034,-1.37194 0.10351,-2.05469 0.0151,-0.118 0.0342,-0.23579 0.0527,-0.35352 z m -41.4043,0.94922 c 0.034,0.48623 0.0515,0.97351 0.0508,1.46094 4.5e-4,0.68681 -0.0339,1.37322 -0.10156,2.05664 -0.0688,0.6831 -0.17253,1.36234 -0.3086,2.03515 -0.27288,1.34648 -0.67989,2.66228 -1.21484,3.92774 -0.26759,0.63306 -0.56687,1.25232 -0.89648,1.85547 -0.3292,0.60286 -0.6884,1.18888 -1.07618,1.75586 -1.16556,1.70308 -2.58045,3.22134 -4.19726,4.5039 -1.07599,0.85439 -2.23476,1.59899 -3.45899,2.22266 -2.45658,1.25028 -5.1391,1.9948 -7.88867,2.18945 -0.48423,0.0348 -0.96956,0.0524 -1.45508,0.0527 -0.68681,-2e-4 -1.37326,-0.0348 -2.05664,-0.10352 -0.68311,-0.0689 -1.36232,-0.17185 -2.03515,-0.30859 -1.34782,-0.27269 -2.6649,-0.67968 -3.93164,-1.21485 -0.63175,-0.26781 -1.24968,-0.567 -1.85157,-0.89648 -1.20684,-0.65879 -2.34468,-1.43676 -3.39648,-2.32227 -1.05048,-0.88574 -2.00964,-1.87441 -2.86328,-2.95117 -0.66482,-0.85091 -1.26173,-1.75277 -1.78516,-2.69726 12.79601,-5.69526 25.61977,-9.48398 38.4668,-11.56641 z m -123.02539,5.92188 c 4.45149,1.19049 8.94459,2.52184 13.48437,4.00976 6.10394,3.4862 12.01589,6.52234 17.64844,8.9082 -0.55245,0.35313 -1.12148,0.67967 -1.70508,0.97852 -1.22506,0.62342 -2.50948,1.12265 -3.83398,1.49023 -0.66202,0.18384 -1.3327,0.33441 -2.00977,0.45118 -0.6771,0.11671 -1.35954,0.19951 -2.04492,0.24804 -0.48423,0.0348 -0.96956,0.0524 -1.45508,0.0527 -0.68681,-2e-4 -1.37322,-0.0348 -2.05664,-0.10352 -0.68311,-0.0689 -1.36232,-0.17185 -2.03515,-0.30859 -2.02262,-0.41009 -3.9721,-1.12182 -5.78321,-2.11133 -1.2068,-0.65879 -2.34464,-1.43676 -3.39648,-2.32227 -0.52505,-0.4427 -1.02764,-0.91139 -1.50586,-1.40429 -0.47797,-0.49269 -0.93098,-1.00896 -1.35742,-1.54688 -1.71364,-2.15803 -2.97686,-4.63797 -3.71485,-7.29297 -0.0873,-0.34752 -0.16558,-0.69723 -0.23437,-1.04882 z m -21.11328,16.13671 v 0.002 c 1.3742,-1.2e-4 2.74497,0.13728 4.09179,0.41015 4.06878,0.82473 7.79338,2.85959 10.68555,5.83789 0.47796,0.49269 0.93102,1.00896 1.35742,1.54688 0.8544,1.07598 1.599,2.23475 2.22266,3.45898 0.31181,0.61188 0.59268,1.23897 0.8418,1.87891 0.24869,0.64047 0.46505,1.29298 0.64843,1.95508 0.18369,0.66133 0.33444,1.33144 0.45118,2.00781 0.19918,1.15667 0.29882,2.32827 0.29882,3.50195 4.2e-4,0.68682 -0.034,1.37322 -0.10156,2.05664 -0.20636,2.0527 -0.71987,4.06279 -1.52344,5.96289 -0.26759,0.63306 -0.56691,1.25232 -0.89648,1.85547 -1.98973,3.6427 -5.03347,6.59934 -8.73242,8.48243 -1.22506,0.62342 -2.50946,1.12265 -3.83399,1.49023 -1.79414,0.49854 -3.64763,0.7515 -5.50976,0.75195 -0.68686,-1.9e-4 -1.37327,-0.0348 -2.05664,-0.10351 -0.68311,-0.0689 -1.36237,-0.17189 -2.03516,-0.3086 -1.34721,-0.27345 -2.6637,-0.68108 -3.92969,-1.21679 -0.63238,-0.2671 -1.25098,-0.56566 -1.85351,-0.89453 -1.81161,-0.98953 -3.46421,-2.24576 -4.90235,-3.72657 -0.47796,-0.49268 -0.93101,-1.00895 -1.35742,-1.54687 -0.8544,-1.07598 -1.59899,-2.23475 -2.22265,-3.45899 -0.31182,-0.61252 -0.59273,-1.24026 -0.8418,-1.88086 -0.24869,-0.63983 -0.46498,-1.29168 -0.64844,-1.95312 -0.18368,-0.66198 -0.33445,-1.33274 -0.45117,-2.00977 -0.11679,-0.67643 -0.19967,-1.35827 -0.24805,-2.04297 -0.034,-0.48491 -0.0512,-0.9709 -0.0508,-1.45703 -4.1e-4,-0.68679 0.034,-1.37322 0.10156,-2.05664 0.13682,-1.36762 0.41049,-2.7181 0.81641,-4.03125 0.61051,-1.97147 1.51382,-3.83999 2.67969,-5.54297 0.77567,-1.13455 1.66284,-2.18863 2.64844,-3.14648 0.49267,-0.47796 1.00893,-0.931 1.54687,-1.35742 0.5376,-0.42739 1.09624,-0.82763 1.67383,-1.19922 1.73718,-1.11479 3.63204,-1.96215 5.62109,-2.51367 1.32416,-0.36836 2.68183,-0.60324 4.05274,-0.70117 0.48491,-0.034 0.9709,-0.0511 1.45703,-0.0508 z m 164.78906,0 v 0.002 c 1.37424,-1.2e-4 2.74496,0.13728 4.0918,0.41015 2.0225,0.4095 3.97201,1.12055 5.7832,2.10938 1.2062,0.65952 2.34341,1.43814 3.39453,2.32422 0.52573,0.44265 1.02899,0.91133 1.50781,1.40429 0.478,0.49269 0.93098,1.00896 1.35743,1.54688 0.85436,1.07598 1.59899,2.23475 2.22265,3.45898 0.31181,0.61188 0.59269,1.23897 0.8418,1.87891 0.24869,0.64047 0.46502,1.29298 0.64844,1.95508 0.36774,1.32357 0.60178,2.68058 0.69922,4.05078 0.034,0.48557 0.0512,0.97221 0.0508,1.45898 4.5e-4,0.68682 -0.0339,1.37322 -0.10157,2.05664 -0.20636,2.0527 -0.71987,4.06279 -1.52343,5.96289 -0.53534,1.26662 -1.19619,2.47642 -1.97266,3.61133 -0.38774,0.56732 -0.80362,1.11488 -1.24609,1.64063 -0.88577,1.05047 -1.87439,2.00967 -2.95118,2.86328 -0.53763,0.42673 -1.09627,0.82632 -1.67382,1.19726 -0.57763,0.37134 -1.17337,0.71357 -1.78516,1.0254 -0.61251,0.31181 -1.24027,0.59275 -1.88086,0.84179 -0.63984,0.24854 -1.29171,0.46497 -1.95312,0.64844 -0.66199,0.1838 -1.33274,0.33438 -2.00977,0.45117 -1.15597,0.19975 -2.32691,0.30037 -3.5,0.30078 -0.68685,-1.9e-4 -1.37326,-0.0348 -2.05664,-0.10351 -0.68311,-0.0689 -1.36233,-0.17189 -2.03516,-0.3086 -1.34789,-0.27333 -2.665,-0.68096 -3.93164,-1.21679 -3.82238,-1.61576 -7.06762,-4.34836 -9.31054,-7.83985 -0.37078,-0.57826 -0.71227,-1.17471 -1.02344,-1.78711 -0.31181,-0.61252 -0.59273,-1.24026 -0.8418,-1.88086 -0.92519,-2.37936 -1.40009,-4.90997 -1.40039,-7.46289 2.3e-4,-0.68682 0.034,-1.37325 0.10352,-2.05664 0.27552,-2.74175 1.09844,-5.40034 2.41992,-7.81836 0.32919,-0.60286 0.68839,-1.18888 1.07617,-1.75586 0.38714,-0.56727 0.80235,-1.11483 1.24414,-1.64062 2.2235,-2.63923 5.07441,-4.67755 8.29102,-5.92773 0.64047,-0.24862 1.29298,-0.46503 1.95507,-0.64844 1.32412,-0.36836 2.68179,-0.60324 4.05274,-0.70117 0.48487,-0.034 0.97091,-0.0511 1.45703,-0.0508 z m 82.39453,0 v 0.002 c 1.3742,-1.2e-4 2.74496,0.13728 4.0918,0.41015 3.38234,0.6857 6.53822,2.21024 9.17773,4.4336 0.52573,0.44265 1.02891,0.91133 1.50782,1.40429 0.47791,0.49269 0.93093,1.00896 1.35742,1.54688 0.42731,0.53697 0.82757,1.09497 1.19922,1.67187 0.37077,0.57829 0.7123,1.17472 1.02343,1.78711 1.47292,2.89443 2.2405,6.09613 2.24024,9.34375 -4e-5,3.45092 -0.86707,6.84651 -2.52149,9.875 -0.32919,0.60286 -0.68839,1.18888 -1.07617,1.75586 -0.38774,0.56732 -0.80362,1.11488 -1.24609,1.64063 -0.88577,1.05047 -1.87442,2.00967 -2.95117,2.86328 -2.15823,1.71294 -4.63812,2.97549 -7.29297,3.71289 -0.66199,0.1838 -1.33274,0.33438 -2.00977,0.45117 -0.67642,0.11668 -1.35827,0.19944 -2.04297,0.24805 -0.48487,0.0348 -0.97094,0.0524 -1.45703,0.0527 -0.68685,-1.9e-4 -1.37326,-0.0348 -2.05664,-0.10351 -1.3677,-0.13762 -2.71817,-0.41175 -4.03125,-0.81836 -0.65658,-0.20323 -1.30259,-0.43921 -1.93555,-0.70703 -0.63171,-0.26718 -1.24959,-0.56571 -1.85156,-0.89453 -1.20676,-0.65879 -2.34464,-1.43676 -3.39648,-2.32227 -0.52502,-0.44207 -1.0276,-0.91012 -1.50586,-1.40234 -1.43747,-1.48055 -2.64431,-3.16865 -3.58008,-5.00782 -0.31181,-0.61252 -0.59273,-1.24026 -0.8418,-1.88086 -0.4978,-1.28097 -0.86618,-2.60855 -1.09961,-3.96289 -0.19993,-1.15596 -0.3004,-2.3269 -0.30078,-3.5 2.3e-4,-0.68682 0.034,-1.37325 0.10352,-2.05664 0.0688,-0.68376 0.17177,-1.36364 0.30859,-2.03711 0.68602,-3.38165 2.21052,-6.53681 4.43359,-9.17578 0.88566,-1.05115 1.87428,-2.01101 2.95118,-2.86523 3.25081,-2.58085 7.20545,-4.11942 11.3457,-4.41406 0.48495,-0.034 0.97091,-0.0511 1.45703,-0.0508 z m -329.57812,0.002 c 0.6868,-4.6e-4 1.37322,0.0333 2.05664,0.10156 0.68307,0.0689 1.36236,0.17185 2.03515,0.30859 0.67348,0.13652 1.33963,0.30667 1.9961,0.50977 1.31255,0.40558 2.58125,0.94145 3.78711,1.59961 1.81175,0.99013 3.46434,2.24702 4.90234,3.72851 1.43732,1.47994 2.64415,3.16738 3.58008,5.00586 0.62343,1.22507 1.12267,2.50947 1.49023,3.83399 0.18369,0.66134 0.33449,1.33144 0.45117,2.00781 0.11679,0.67708 0.19967,1.35957 0.24805,2.04492 0.034,0.4849 0.0524,0.97088 0.0527,1.45703 -2.3e-4,0.68685 -0.034,1.37325 -0.10352,2.05664 -0.13682,1.36762 -0.41045,2.7181 -0.81641,4.03125 -0.40682,1.3127 -0.94402,2.58139 -1.60351,3.78711 -0.3292,0.60286 -0.68839,1.18888 -1.07617,1.75586 -0.3871,0.56727 -0.80236,1.11484 -1.24414,1.64063 -0.4427,0.52505 -0.91141,1.02763 -1.4043,1.50586 -1.4804,1.43815 -3.16851,2.64565 -5.00781,3.58203 -1.83973,0.9356 -3.8097,1.58939 -5.84375,1.93945 -1.15597,0.19975 -2.32688,0.30037 -3.5,0.30078 -0.68618,-2.6e-4 -1.37196,-0.0348 -2.05469,-0.10351 -2.05414,-0.20659 -4.06554,-0.72079 -5.9668,-1.52539 -0.63235,-0.2671 -1.25094,-0.56566 -1.85351,-0.89453 -2.41813,-1.32081 -4.54674,-3.11334 -6.25977,-5.27149 -2.14567,-2.7037 -3.57752,-5.90322 -4.16406,-9.30469 -0.19918,-1.15603 -0.29883,-2.32694 -0.29883,-3.5 -4.2e-4,-0.68615 0.034,-1.37191 0.10156,-2.05468 0.13682,-1.36762 0.41045,-2.71811 0.81641,-4.03125 0.61032,-1.97215 1.51363,-3.84134 2.67969,-5.54493 1.55579,-2.27464 3.55229,-4.21396 5.87109,-5.70312 0.57763,-0.37066 1.17344,-0.71225 1.78516,-1.02344 0.61189,-0.31173 1.23895,-0.5927 1.8789,-0.84179 1.92367,-0.74834 3.94888,-1.20329 6.00782,-1.34961 0.48494,-0.0336 0.97094,-0.0497 1.45703,-0.0488 z m 167.6289,0.2207 c 2.46459,0.33524 4.84814,1.11409 7.03516,2.29883 1.20623,0.65952 2.34341,1.43814 3.39453,2.32422 0.52569,0.44265 1.02898,0.91133 1.50781,1.40429 0.95739,0.98499 1.81385,2.06328 2.55664,3.21875 0.37077,0.57829 0.71231,1.17471 1.02344,1.78711 0.62343,1.22507 1.12272,2.50947 1.49023,3.83399 0.49792,1.79425 0.75019,3.64773 0.75,5.50976 4.6e-4,0.68682 -0.0339,1.37322 -0.10156,2.05664 -0.20636,2.0527 -0.71983,4.06279 -1.52344,5.96289 -1.07265,2.53911 -2.64409,4.83709 -4.62109,6.75782 -1.48052,1.43746 -3.16866,2.6443 -5.00781,3.58008 -1.83965,0.93628 -3.80953,1.59072 -5.84375,1.9414 -0.67642,0.11668 -1.35827,0.19944 -2.04297,0.24805 -0.48491,0.0348 -0.97087,0.0524 -1.45703,0.0527 -0.68682,-1.9e-4 -1.37327,-0.0348 -2.05664,-0.10351 -0.68311,-0.0689 -1.36236,-0.17189 -2.03516,-0.3086 -2.70092,-0.54748 -5.26462,-1.63138 -7.53906,-3.1875 -1.13465,-0.77625 -2.18871,-1.66414 -3.14649,-2.65039 -0.47794,-0.49268 -0.93097,-1.00895 -1.35742,-1.54687 -0.42735,-0.53697 -0.82757,-1.09495 -1.19922,-1.67188 -1.11477,-1.73717 -1.96216,-3.63203 -2.51367,-5.62109 -0.49787,-1.79425 -0.75019,-3.64771 -0.75,-5.50977 -4.5e-4,-0.68679 0.0339,-1.37322 0.10157,-2.05664 0.1368,-1.36762 0.41044,-2.7181 0.8164,-4.03125 0.20334,-0.65591 0.43925,-1.30125 0.70703,-1.93359 1.88081,-4.44431 5.26239,-8.08716 9.55469,-10.29297 4.48048,0.23324 8.59447,-0.38961 12.25781,-2.0625 z M 228.24414,309.7207 c 11.37554,5.3e-4 20.59713,9.22211 20.59766,20.59766 5.3e-4,11.37631 -9.22133,20.59908 -20.59766,20.59961 -11.37705,5.4e-4 -20.60014,-9.22253 -20.59961,-20.59961 5.3e-4,-11.37631 9.22332,-20.5982 20.59961,-20.59766 z m 82.39453,0 c 11.37554,5.3e-4 20.59713,9.22211 20.59766,20.59766 5.7e-4,11.37631 -9.22137,20.59908 -20.59766,20.59961 -11.37706,5.4e-4 -20.60014,-9.22253 -20.59961,-20.59961 5.3e-4,-11.37631 9.22331,-20.5982 20.59961,-20.59766 z m 82.39453,0 c 11.37563,5.3e-4 20.59713,9.22211 20.59766,20.59766 5.7e-4,11.37631 -9.22128,20.59908 -20.59766,20.59961 -11.37706,5.4e-4 -20.60014,-9.22253 -20.59961,-20.59961 5.3e-4,-11.37631 9.22331,-20.5982 20.59961,-20.59766 z m 82.39453,0 c 11.37555,5.3e-4 20.59713,9.22211 20.59766,20.59766 5.3e-4,11.37631 -9.22135,20.59908 -20.59766,20.59961 -11.37709,5.4e-4 -20.60012,-9.22253 -20.59961,-20.59961 5.3e-4,-11.37631 9.22327,-20.5982 20.59961,-20.59766 z m 82.39454,0 c 11.37554,5.4e-4 20.59712,9.22211 20.59765,20.59766 5.3e-4,11.37631 -9.22135,20.59907 -20.59765,20.59961 -11.3771,5.4e-4 -20.60014,-9.22253 -20.59961,-20.59961 5.3e-4,-11.37631 9.2233,-20.5982 20.59961,-20.59766 z m 82.39453,0 c 5.05266,0.008 9.92607,1.87318 13.69336,5.24024 2.00447,2.83632 3.92141,5.70698 5.74609,8.61523 0.75916,2.16713 1.15064,4.44595 1.1582,6.74219 5.7e-4,11.37631 -9.22131,20.59907 -20.59765,20.59961 -11.37706,5.4e-4 -20.60014,-9.22254 -20.59961,-20.59961 5.3e-4,-11.37631 9.22327,-20.5982 20.59961,-20.59766 z m -453.16992,41.19727 c 11.37547,5.4e-4 20.59712,9.22213 20.59765,20.59765 5.3e-4,11.37631 -9.22138,20.59912 -20.59765,20.59961 -8.05086,-0.0113 -15.35733,-4.71142 -18.70508,-12.0332 1.88012,-8.7267 4.49038,-17.43627 7.96679,-26.125 3.23161,-1.98184 6.94737,-3.03346 10.73829,-3.03906 z m 82.39453,0 c 11.37552,5.4e-4 20.59712,9.22213 20.59765,20.59765 5.3e-4,11.37631 -9.22132,20.59912 -20.59765,20.59961 -11.37707,5.7e-4 -20.60014,-9.22251 -20.59961,-20.59961 5.3e-4,-11.37628 9.2233,-20.59819 20.59961,-20.59765 z m 82.39453,0 c 11.37553,5.4e-4 20.59712,9.22213 20.59765,20.59765 5.3e-4,11.37631 -9.22132,20.59912 -20.59765,20.59961 -11.37706,5.7e-4 -20.60014,-9.22251 -20.59961,-20.59961 5.7e-4,-11.37628 9.22331,-20.59819 20.59961,-20.59765 z m 82.39453,0 c 11.37555,5.4e-4 20.59714,9.22213 20.59765,20.59765 5.3e-4,11.37631 -9.22131,20.59912 -20.59765,20.59961 -11.37706,5.7e-4 -20.60014,-9.22251 -20.59961,-20.59961 5.7e-4,-11.37628 9.22331,-20.59819 20.59961,-20.59765 z m 82.39453,0 c 11.37558,5.3e-4 20.59713,9.22213 20.59766,20.59765 5.6e-4,11.37631 -9.22132,20.59912 -20.59766,20.59961 -11.37706,5.7e-4 -20.60018,-9.22251 -20.59961,-20.59961 5.3e-4,-11.37628 9.22331,-20.59819 20.59961,-20.59765 z m 82.39453,0 c 11.37555,5.3e-4 20.59713,9.22213 20.59766,20.59765 5.3e-4,11.37631 -9.22139,20.59912 -20.59766,20.59961 -11.37709,5.7e-4 -20.60014,-9.22251 -20.59961,-20.59961 5.3e-4,-11.37628 9.22327,-20.59819 20.59961,-20.59765 z m 75.25195,1.28906 c 5.07663,12.6096 8.71992,25.79213 10.95313,39.53906 -1.25605,0.24038 -2.53171,0.36341 -3.81055,0.36719 -11.37706,5.3e-4 -20.60014,-9.22253 -20.59961,-20.59961 0.008,-8.61674 5.37474,-16.3192 13.45703,-19.30664 z m -446.02734,39.9082 c 7.66347,3.8e-4 14.3352,4.1948 17.88281,10.4043 h -35.76757 c 3.54794,-6.20991 10.22065,-10.40464 17.88476,-10.4043 z m 82.39453,0 c 7.66347,3.8e-4 14.33521,4.1948 17.88281,10.4043 h -35.76757 c 3.54796,-6.20991 10.22064,-10.40464 17.88476,-10.4043 z m 82.39453,0 c 7.66352,3.8e-4 14.3352,4.1948 17.88282,10.4043 h -35.76758 c 3.54794,-6.20991 10.22064,-10.40464 17.88476,-10.4043 z m 82.39453,0 c 7.66345,3.8e-4 14.3352,4.1948 17.88282,10.4043 h -35.76758 c 3.54795,-6.20991 10.2206,-10.40464 17.88476,-10.4043 z m 82.39454,0 c 7.66348,4.2e-4 14.33519,4.19484 17.88281,10.4043 H 539.9375 c 3.54796,-6.20991 10.22064,-10.40464 17.88477,-10.4043 z m 82.39453,0 c 7.66348,4.2e-4 14.33519,4.19484 17.88281,10.4043 h -35.76758 c 3.54796,-6.21003 10.22057,-10.40464 17.88477,-10.4043 z M 115,542.51953 v 20 h 65.7168 c 12.08119,31.977 28.15798,62.2678 49.86523,89.00977 15.25643,18.44583 32.76364,35.46878 53.04688,48.25976 28.44429,14.38885 61.12636,22.60508 92.9375,16.625 13.88521,-2.68996 28.0709,-6.08295 40.18164,-13.54101 9.5743,-4.60804 19.90263,0.17195 28.08984,5.23047 34.8601,11.88294 74.10273,12.57529 108.25,-2.1211 16.01197,-5.99818 28.57719,-18.14325 41.43359,-28.99804 34.85772,-31.05918 60.26048,-71.19035 77.30079,-114.46485 H 740 v -20 z m 99.13672,20 h 28.21289 c 3.98827,3.75632 6.49191,9.07143 6.49219,14.98242 -5.3e-4,11.37555 -9.22212,20.59713 -20.59766,20.59766 -11.37629,5.7e-4 -20.59908,-9.22135 -20.59961,-20.59766 2.8e-4,-5.9114 2.50351,-11.2261 6.49219,-14.98242 z m 82.39453,0 h 28.21289 c 3.98827,3.75632 6.4919,9.07143 6.49219,14.98242 -5.3e-4,11.37555 -9.22212,20.59713 -20.59766,20.59766 -11.3763,5.7e-4 -20.59908,-9.22135 -20.59961,-20.59766 2.8e-4,-5.9114 2.50351,-11.2261 6.49219,-14.98242 z m 82.39453,0 h 28.21289 c 3.98827,3.75632 6.49192,9.07143 6.49219,14.98242 -5.3e-4,11.37555 -9.22203,20.59713 -20.59766,20.59766 -11.3763,5.7e-4 -20.59908,-9.22135 -20.59961,-20.59766 2.8e-4,-5.9114 2.50353,-11.2261 6.49219,-14.98242 z m 82.39453,0 h 28.21289 c 3.98827,3.75632 6.49193,9.07143 6.49219,14.98242 -5.3e-4,11.37555 -9.22211,20.59713 -20.59766,20.59766 -11.37634,5.7e-4 -20.59908,-9.22135 -20.59961,-20.59766 3.1e-4,-5.9114 2.50351,-11.2261 6.49219,-14.98242 z m 82.39453,0 h 28.21289 c 3.98828,3.75632 6.49193,9.07143 6.49219,14.98242 -5.3e-4,11.37555 -9.22211,20.59713 -20.59765,20.59766 -11.37631,5.7e-4 -20.59908,-9.22135 -20.59961,-20.59766 3e-4,-5.9114 2.5035,-11.2261 6.49218,-14.98242 z m 82.39454,0 h 28.19531 c 0.84253,0.79495 1.62454,1.66414 2.33203,2.60547 -4.70173,11.28729 -9.98708,22.29292 -15.96289,32.9668 -0.15156,0.004 -0.30348,0.008 -0.45508,0.008 -11.3771,5.7e-4 -20.60014,-9.22251 -20.59961,-20.59961 2.7e-4,-5.91001 2.50314,-11.22426 6.49024,-14.98047 z m -356.66797,35.58008 c 11.37633,5.7e-4 20.59818,9.22331 20.59765,20.59961 -5.3e-4,11.37555 -9.22208,20.59713 -20.59765,20.59766 -11.37631,5.5e-4 -20.59908,-9.22136 -20.59961,-20.59766 -5.3e-4,-11.3771 9.22254,-20.60014 20.59961,-20.59961 z m 82.39453,0 c 11.37633,5.7e-4 20.59818,9.22331 20.59765,20.59961 -5.3e-4,11.37555 -9.22212,20.59713 -20.59765,20.59766 -11.3763,5.5e-4 -20.59908,-9.22136 -20.59961,-20.59766 -5.3e-4,-11.3771 9.22255,-20.60014 20.59961,-20.59961 z m 82.39453,0 c 11.37634,5.7e-4 20.59818,9.22331 20.59765,20.59961 -5.1e-4,11.37555 -9.22207,20.59713 -20.59765,20.59766 -11.3763,5.5e-4 -20.59904,-9.22136 -20.59961,-20.59766 -5.3e-4,-11.3771 9.22255,-20.60014 20.59961,-20.59961 z m 82.39453,0 c 11.37634,5.3e-4 20.59822,9.22331 20.59766,20.59961 -5.3e-4,11.37555 -9.22208,20.59713 -20.59766,20.59766 -11.3763,5.5e-4 -20.59908,-9.22136 -20.59961,-20.59766 -5.7e-4,-11.3771 9.22255,-20.60014 20.59961,-20.59961 z m 82.39453,0 c 11.37627,5.3e-4 20.59819,9.22331 20.59766,20.59961 -5.3e-4,11.37555 -9.22211,20.59713 -20.59766,20.59766 -11.37634,5.5e-4 -20.59908,-9.22136 -20.59961,-20.59766 -5.3e-4,-11.3771 9.22252,-20.60014 20.59961,-20.59961 z m -288.38086,41.19727 c 11.37629,5.5e-4 20.59823,9.22326 20.59766,20.5996 -5.3e-4,11.37555 -9.22212,20.59713 -20.59766,20.59766 -11.3763,5.7e-4 -20.59908,-9.22135 -20.59961,-20.59766 -5.3e-4,-11.37709 9.22255,-20.60013 20.59961,-20.5996 z m 82.39453,0 c 11.37638,5.5e-4 20.59823,9.22326 20.59766,20.5996 -5.3e-4,11.37555 -9.22203,20.59713 -20.59766,20.59766 -11.3763,5.7e-4 -20.59908,-9.22135 -20.59961,-20.59766 -5.3e-4,-11.37709 9.22255,-20.60013 20.59961,-20.5996 z m 82.39453,0 c 11.37631,5.5e-4 20.59819,9.22326 20.59766,20.5996 -5.3e-4,11.37555 -9.22211,20.59713 -20.59766,20.59766 -11.37634,5.7e-4 -20.59908,-9.22135 -20.59961,-20.59766 -5.1e-4,-11.37709 9.22252,-20.60013 20.59961,-20.5996 z m 82.39454,0 c 11.3763,5.5e-4 20.59818,9.22326 20.59765,20.5996 -5.3e-4,11.37555 -9.22211,20.59713 -20.59765,20.59766 -11.37631,5.7e-4 -20.59908,-9.22135 -20.59961,-20.59766 -5.3e-4,-11.37709 9.22255,-20.60013 20.59961,-20.5996 z m -205.98438,41.19726 c 11.37629,-5.3e-4 20.59908,9.22135 20.59961,20.59766 -0.004,1.35265 -0.14173,2.7016 -0.41016,4.02734 -14.67245,1.76436 -28.08115,0.82008 -40.66796,-1.88476 -0.0767,-0.71165 -0.11688,-1.42682 -0.11915,-2.14258 5.4e-4,-11.37555 9.22211,-20.59713 20.59766,-20.59766 z m 82.39453,0 c 10.68098,0.008 19.5847,8.17733 20.50781,18.81836 -3.61591,-0.96336 -7.2853,-2.0465 -11.02148,-3.2832 -9.24314,-6.28827 -18.48561,-8.63328 -27.72852,-4.4668 3.5472,-6.7968 10.5755,-11.06125 18.24219,-11.06836 z m 82.39453,0 c 10.18515,0.008 18.83488,7.45968 20.35157,17.53125 -12.68183,4.18246 -26.12866,6.62596 -40.57813,6.79102 -0.23698,-1.22763 -0.36209,-2.47431 -0.37305,-3.72461 5.7e-4,-11.37631 9.22331,-20.59819 20.59961,-20.59766 z"
         style="opacity:1;fill:#ff0000;fill-opacity:1;stroke:none;stroke-width:0.99999994px;stroke-linecap:butt;stroke-linejoin:miter;stroke-opacity:1" />
      <path
         sodipodi:nodetypes="ccccccccccc"
         inkscape:connector-curvature="0"
         id="path6066"
         d="m 91.592816,23.284884 c -3.242897,0.140274 -6.250077,-0.588312 -8.285284,2.405538 -0.82697,2.711538 0.41716,4.087482 1.870687,5.612577 7.664527,8.56647 15.944691,16.614931 17.941941,29.953879 0.11482,1.175575 0.33968,1.865087 1.34499,2.44213 3.04258,1.312495 6.84479,2.612819 8.74756,2.547078 1.3993,-0.331087 2.03425,-0.459529 1.57998,-2.349228 -2.70544,-11.244638 -6.71855,-21.974076 -13.53177,-31.524257 -0.88202,-1.6252 -1.731197,-3.091166 -2.525337,-4.558509 -1.3067,-2.388645 -3.34999,-4.174691 -7.142757,-4.529208 z"
         style="fill:#6a3c1f;fill-opacity:1;stroke:none;stroke-width:0.26499999;stroke-linecap:butt;stroke-linejoin:miter;stroke-miterlimit:4;stroke-dasharray:none;stroke-opacity:1" />
      <path
         inkscape:connector-curvature="0"
         id="path6068"
         transform="scale(0.26458333)"
         d="m 590.35742,70.234375 c -14.02182,13.35572 -26.20974,27.526076 -43.79297,39.298825 -33.90077,18.45341 -71.34308,35.00256 -92.63672,59.27149 -16.78439,20.5971 -21.01519,37.79584 -21.75976,54.04883 5.72957,-9.62139 13.58959,-28.03086 27.90039,-42.07032 17.52933,-17.19702 34.52773,-29.31559 51.7168,-35.54882 37.2771,-14.47772 62.99663,-29.05099 76.78711,-52.142583 13.37941,60.983773 0.357,88.634243 -44.58204,123.957033 -7.9652,6.63393 4.34423,5.90039 6.375,6.50976 5.62617,0.41423 12.47398,1.30759 20.77344,-4.48047 10.59965,-7.43598 17.94028,-16.45097 23.66211,-26.25195 11.91882,-16.77058 17.25949,-24.6192 17.40625,-52.28906 0.68262,-30.64107 -8.82305,-52.065456 -21.84961,-70.302735 z m -35,77.857425 c -53.83105,14.62944 -93.42851,45.84738 -116.78515,95.71289 32.62083,-40.15326 71.78424,-71.74891 116.78515,-95.71289 z"
         style="fill:#3ab4a5;fill-opacity:1;stroke:none;stroke-width:1.00157475;stroke-linecap:butt;stroke-linejoin:miter;stroke-miterlimit:4;stroke-dasharray:none;stroke-opacity:1" />
    </g>
  </g>
</svg>
