<?xml version="1.0" encoding="UTF-8" standalone="no"?>
<!-- Created with Inkscape (http://www.inkscape.org/) -->

<svg
   xmlns:dc="http://purl.org/dc/elements/1.1/"
   xmlns:cc="http://creativecommons.org/ns#"
   xmlns:rdf="http://www.w3.org/1999/02/22-rdf-syntax-ns#"
   xmlns:svg="http://www.w3.org/2000/svg"
   xmlns="http://www.w3.org/2000/svg"
   xmlns:sodipodi="http://sodipodi.sourceforge.net/DTD/sodipodi-0.dtd"
   xmlns:inkscape="http://www.inkscape.org/namespaces/inkscape"
   width="500mm"
   height="500mm"
   viewBox="0 0 500 500"
   version="1.1"
   id="svg8"
   inkscape:version="0.92.1 r15371"
   sodipodi:docname="red_hearts_splitmono.svg">
  <defs
     id="defs2" />
  <sodipodi:namedview
     id="base"
     pagecolor="#ffffff"
     bordercolor="#666666"
     borderopacity="1.0"
     inkscape:pageopacity="0.0"
     inkscape:pageshadow="2"
     inkscape:zoom="0.288925"
     inkscape:cx="944.88189"
     inkscape:cy="944.88189"
     inkscape:document-units="mm"
     inkscape:current-layer="layer1"
     showgrid="true"
     inkscape:window-width="1366"
     inkscape:window-height="715"
     inkscape:window-x="-8"
     inkscape:window-y="-8"
     inkscape:window-maximized="1">
    <inkscape:grid
       type="xygrid"
       id="grid6855" />
  </sodipodi:namedview>
  <metadata
     id="metadata5">
    <rdf:RDF>
      <cc:Work
         rdf:about="">
        <dc:format>image/svg+xml</dc:format>
        <dc:type
           rdf:resource="http://purl.org/dc/dcmitype/StillImage" />
        <dc:title></dc:title>
      </cc:Work>
    </rdf:RDF>
  </metadata>
  <g
     inkscape:label="Layer 1"
     inkscape:groupmode="layer"
     id="layer1"
     style="opacity:1"
     transform="translate(0,203)">
    <g
       id="g4491"
       transform="matrix(2.8458765,0,0,2.8458765,-46.918568,-317.146)">
      <path
         sodipodi:nodetypes="ccccccccccc"
         inkscape:connector-curvature="0"
         id="path4529"
         transform="scale(0.26458333)"
         d="m 316.17773,176.00586 c -12.25663,0.53017 -23.62235,-2.22354 -31.31445,9.0918 -3.12555,10.24833 1.57665,15.44875 7.07031,21.21289 28.96829,32.37721 60.26335,62.79659 67.81202,113.21151 0.43395,4.44312 1.28381,7.04915 5.08338,9.2301 11.49952,4.96061 25.87006,9.87522 33.06166,9.62675 5.28868,-1.25135 7.68848,-1.7368 5.97156,-8.87897 -10.22529,-42.49942 -25.39294,-83.05163 -51.14366,-119.1468 -3.33361,-6.14249 -6.54308,-11.68315 -9.54456,-17.22901 -4.93869,-9.02795 -12.66139,-15.77836 -26.99623,-17.11827 z"
         style="fill:#6a3c1f;fill-opacity:1;stroke:none;stroke-width:1.00157475;stroke-linecap:butt;stroke-linejoin:miter;stroke-miterlimit:4;stroke-dasharray:none;stroke-opacity:1" />
      <path
         inkscape:connector-curvature="0"
         id="path4531"
         transform="matrix(0.26458333,0,0,0.26458333,0,-203)"
         d="m 560.35742,925.47852 c -14.0218,13.35572 -26.20972,27.52607 -43.79297,39.29882 -33.90079,18.45341 -71.34308,35.00256 -92.63672,59.27146 -16.78439,20.5971 -21.01519,37.7959 -21.75976,54.0489 5.72957,-9.6214 13.58959,-28.0309 27.90039,-42.0704 17.52937,-17.197 34.52777,-29.3155 51.7168,-35.5488 37.27714,-14.4777 62.99663,-29.05097 76.78711,-52.14256 13.37941,60.98376 0.3572,88.63426 -44.58204,123.95706 -7.96519,6.6339 4.34617,5.9004 6.37696,6.5097 5.62618,0.4143 12.472,1.3076 20.77148,-4.4804 10.59966,-7.436 17.94028,-16.451 23.66211,-26.252 11.91882,-16.7706 17.25951,-24.6192 17.40625,-52.28905 0.68265,-30.64107 -8.82305,-52.06545 -21.84961,-70.30273 z m -35,77.85738 c -53.83109,14.6295 -93.42851,45.8474 -116.78515,95.7129 32.62087,-40.1532 71.78421,-71.7489 116.78515,-95.7129 z"
         style="fill:#3ab4a5;fill-opacity:1;stroke:none;stroke-width:1.00157475;stroke-linecap:butt;stroke-linejoin:miter;stroke-miterlimit:4;stroke-dasharray:none;stroke-opacity:1" />
      <path
         inkscape:connector-curvature="0"
         id="path9639"
         transform="scale(0.26458333)"
         d="m 493.90234,322.80859 c -1.0244,9.8e-4 -2.05029,0.0105 -3.07617,0.0332 -30.43922,0.27023 -59.92761,10.70412 -85.87305,26.10937 -15.49954,4.60628 -31.06868,-3.93866 -44.58398,-10.74609 -11.4962,-6.29563 -24.80385,-8.37805 -37.49805,-11.19922 -38.57,-7.6178 -80.46906,-2.36328 -113.81836,19.29687 -30.56919,19.5423 -54.02118,48.78912 -70.86328,80.59766 -8.78831,17.53188 -13.90133,36.36318 -16.20703,55.61914 H 88.658203 v 20 H 700 v -20 h -30.76172 c -4.63171,-31.75062 -16.46648,-62.40776 -35.79492,-88.18555 -13.63809,-18.21501 -29.79797,-34.93089 -48.4668,-47.92382 -28.24199,-14.08083 -59.31609,-23.64039 -91.07422,-23.60157 z m -11.17968,12.49414 c 0.78743,0.70255 1.46453,1.32081 2.38476,2.12696 3.40392,2.98186 7.25507,6.39825 8.5586,7.59375 1.30344,1.19555 2.48764,2.17383 2.63281,2.17383 0.14513,0 1.33124,-0.97828 2.63476,-2.17383 1.30345,-1.1955 5.15464,-4.61189 8.5586,-7.59375 0.48165,-0.42195 0.82249,-0.73516 1.26562,-1.12696 22.93274,2.77159 45.93404,10.41137 68.99219,22.06055 3.64535,2.8188 7.15812,5.69067 10.54883,8.61133 -0.21252,0.6016 -0.40157,1.22011 -0.53906,1.86914 -0.76464,3.60937 -0.0674,9.15663 1.61132,12.82031 1.81807,3.96809 4.21314,6.58913 13.29493,14.54492 3.40391,2.98194 7.25507,6.39829 8.55859,7.59375 1.30345,1.19554 2.48764,2.17383 2.63281,2.17383 0.14514,0 1.33125,-0.97829 2.63477,-2.17383 0.54974,-0.5042 2.37791,-2.1079 3.60937,-3.20312 4.54773,6.0205 8.67207,12.20993 12.38477,18.56445 -2.76333,1.87458 -4.76733,4.80656 -5.54102,8.45899 -0.76463,3.60933 -0.067,9.15666 1.61133,12.82031 1.81807,3.96809 4.21512,6.58913 13.29688,14.54492 3.40391,2.9819 7.25507,6.39825 8.55859,7.59375 0.16429,0.1507 0.28274,0.24446 0.44141,0.38672 1.73539,6.38291 3.12722,12.90316 4.20117,19.55078 h -16.53125 c -2.31825,-4.25333 -6.69468,-6.89861 -11.90235,-6.91015 -4.33765,-0.0113 -8.32698,2.00087 -11.34179,5.71679 l -0.96875,1.19336 h -0.85938 l -0.62695,-0.75781 c -3.33714,-4.04493 -6.50999,-5.80809 -10.94727,-6.07617 -0.43579,-0.0263 -0.86588,-0.0337 -1.29101,-0.0234 -4.96906,0.11939 -9.15202,2.70425 -11.40039,6.85742 h -29.03516 c -2.31825,-4.25333 -6.69468,-6.89861 -11.90234,-6.91015 -4.33769,-0.0113 -8.32698,2.00087 -11.3418,5.71679 l -0.96875,1.19336 h -0.85938 l -0.62695,-0.75781 c -3.33709,-4.04493 -6.50995,-5.80809 -10.94726,-6.07617 -0.4358,-0.0263 -0.86588,-0.0337 -1.29102,-0.0234 -4.96906,0.11939 -9.15202,2.70425 -11.40039,6.85742 h -29.03516 c -2.31825,-4.25333 -6.69467,-6.89861 -11.90234,-6.91015 -4.33765,-0.0113 -8.32698,2.00087 -11.3418,5.71679 l -0.96875,1.19336 h -0.85937 l -0.62696,-0.75781 c -3.33714,-4.04493 -6.50994,-5.80809 -10.94726,-6.07617 -0.4358,-0.0263 -0.86588,-0.0337 -1.29102,-0.0234 -4.96906,0.11939 -9.15203,2.70425 -11.40039,6.85742 H 403.4043 c -2.31825,-4.25333 -6.69468,-6.89861 -11.90235,-6.91015 -4.33765,-0.0113 -8.32702,2.00087 -11.34179,5.71679 l -0.96875,1.19336 h -0.85938 l -0.62695,-0.75781 c -3.33706,-4.04493 -6.50995,-5.80809 -10.94727,-6.07617 -0.43579,-0.0263 -0.86588,-0.0337 -1.29101,-0.0234 -4.96904,0.11939 -9.15201,2.70425 -11.40039,6.85742 h -29.03516 c -2.31825,-4.25333 -6.69468,-6.89861 -11.90234,-6.91015 -4.33768,-0.0113 -8.32702,2.00087 -11.3418,5.71679 l -0.96875,1.19336 h -0.85938 l -0.62695,-0.75781 c -3.33714,-4.04493 -6.50998,-5.80809 -10.94726,-6.07617 -0.4358,-0.0263 -0.86588,-0.0337 -1.29102,-0.0234 -4.96909,0.11939 -9.15203,2.70425 -11.40039,6.85742 H 246.6582 c -2.31825,-4.25333 -6.69467,-6.89861 -11.90234,-6.91015 -4.33765,-0.0113 -8.32698,2.00087 -11.3418,5.71679 l -0.96875,1.19336 h -0.85937 l -0.62696,-0.75781 c -3.33713,-4.04493 -6.50998,-5.80809 -10.94726,-6.07617 -0.4358,-0.0263 -0.86588,-0.0337 -1.29102,-0.0234 -4.96906,0.11939 -9.15202,2.70425 -11.40039,6.85742 h -29.0332 c -2.31792,-4.25469 -6.69568,-6.90054 -11.9043,-6.91211 v 0.002 c -4.33769,-0.0113 -8.32698,2.00087 -11.34179,5.71679 l -0.96875,1.19336 h -0.85938 l -0.625,-0.75781 c -1.85707,-2.25097 -3.67193,-3.77504 -5.67383,-4.74805 2.91555,-16.60177 8.3513,-33.14359 17.23242,-49.60351 12.68117,-21.60201 26.56163,-39.16827 41.57227,-52.92383 0.24538,2.53789 0.86026,5.14447 1.79102,7.17578 1.81806,3.96809 4.21129,6.59108 13.29296,14.54687 3.40392,2.9819 7.25703,6.39825 8.56055,7.59375 1.30345,1.19554 2.48764,2.17383 2.63281,2.17383 0.14514,0 1.33125,-0.97829 2.63477,-2.17383 1.30345,-1.1955 5.15659,-4.61185 8.56055,-7.59375 9.08164,-7.95579 11.47697,-10.57878 13.29492,-14.54687 1.67864,-3.66369 2.37592,-9.20899 1.61133,-12.81836 -1.37261,-6.47924 -6.6857,-10.78011 -13.33789,-10.79492 l -0.004,0.002 c -4.33765,-0.011 -8.32698,2.00092 -11.3418,5.7168 l -1.39453,1.7168 -1.06055,-1.28321 c -1.94973,-2.36322 -3.84979,-3.92855 -5.97265,-4.89062 12.41776,-8.27375 25.51072,-14.27317 39.24414,-18.11524 1.56907,1.39162 3.6592,3.22541 4.31641,3.82813 1.30341,1.19555 2.48764,2.17383 2.63281,2.17383 0.14513,0 1.33121,-0.97828 2.63476,-2.17383 1.30341,-1.19546 5.15465,-4.61185 8.5586,-7.59375 0.008,-0.007 0.0132,-0.0123 0.0215,-0.0195 18.67497,-2.59854 38.42991,-1.55831 59.19531,2.88476 2.06445,1.82588 4.51831,3.98406 5.33008,4.72852 1.30344,1.19555 2.48761,2.17383 2.63281,2.17383 0.14514,0 1.33125,-0.97828 2.63477,-2.17383 0.28889,-0.26496 1.34433,-1.19109 1.89648,-1.6836 4.01976,1.09958 8.07265,2.31723 12.16407,3.65821 10.22777,5.8415 19.92066,10.43164 28.64648,12.76757 -1.74148,0.95754 -3.34521,2.28974 -4.73437,4.00196 l -1.39454,1.7168 -1.06054,-1.28321 c -3.33706,-4.04485 -6.50995,-5.80614 -10.94727,-6.07422 -6.9727,-0.42147 -12.67461,3.90719 -14.11719,10.7168 -0.7646,3.60937 -0.0674,9.15663 1.61133,12.82031 1.81806,3.96809 4.21314,6.58913 13.29493,14.54492 3.40388,2.98194 7.25511,6.39829 8.55859,7.59375 1.30348,1.19554 2.48764,2.17383 2.63281,2.17383 0.14514,0 1.33117,-0.97829 2.63477,-2.17383 1.3034,-1.19546 5.1546,-4.61181 8.55859,-7.59375 9.08164,-7.95579 11.47896,-10.57683 13.29688,-14.54492 1.67867,-3.66368 2.37596,-9.21094 1.61132,-12.82031 -0.66586,-3.14311 -2.26467,-5.76764 -4.48828,-7.64453 2.35244,-0.32029 4.57568,-0.93878 6.65235,-1.90234 25.13743,-15.23949 50.38269,-22.8166 75.71875,-23.99415 z m -169.59375,22.74805 c -4.33768,-0.011 -8.32702,2.00092 -11.3418,5.7168 l -1.39453,1.7168 -1.06055,-1.28321 c -3.33714,-4.04485 -6.50998,-5.80614 -10.94726,-6.07422 -6.97278,-0.42147 -12.67462,3.90719 -14.11719,10.7168 -0.76459,3.60937 -0.0671,9.15663 1.61133,12.82031 1.81805,3.96809 4.21317,6.58913 13.29492,14.54492 3.40396,2.98194 7.25507,6.39829 8.55859,7.59375 1.30344,1.19554 2.48764,2.17383 2.63281,2.17383 0.14514,0 1.33316,-0.97829 2.63672,-2.17383 1.30344,-1.19546 5.15465,-4.61181 8.5586,-7.59375 9.08164,-7.95579 11.47697,-10.57683 13.29492,-14.54492 1.67864,-3.66368 2.376,-9.21094 1.61133,-12.82031 -1.37261,-6.47924 -6.68569,-10.77816 -13.33789,-10.79297 z m 156.74609,0 c -4.33765,-0.011 -8.32698,2.00092 -11.3418,5.7168 l -1.39453,1.7168 -1.06055,-1.28321 c -3.33714,-4.04485 -6.50994,-5.80614 -10.94726,-6.07422 -6.97274,-0.42147 -12.67466,3.90719 -14.11719,10.7168 -0.76463,3.60937 -0.0673,9.15663 1.61133,12.82031 1.8181,3.96809 4.2131,6.58913 13.29492,14.54492 3.40388,2.98194 7.25504,6.39829 8.5586,7.59375 1.30344,1.19554 2.48764,2.17383 2.63281,2.17383 0.14513,0 1.33124,-0.97829 2.63476,-2.17383 1.30345,-1.19546 5.15464,-4.61181 8.5586,-7.59375 9.08164,-7.95579 11.47892,-10.57683 13.29687,-14.54492 1.67864,-3.66368 2.376,-9.21094 1.61133,-12.82031 -1.37261,-6.47924 -6.68569,-10.77816 -13.33789,-10.79297 z m 78.37305,0 c -4.33769,-0.011 -8.32698,2.00092 -11.3418,5.7168 l -1.39453,1.7168 -1.06055,-1.28321 c -3.33709,-4.04485 -6.50995,-5.80614 -10.94726,-6.07422 -6.97274,-0.42147 -12.67462,3.90719 -14.11719,10.7168 -0.7646,3.60937 -0.067,9.15663 1.61133,12.82031 1.81806,3.96809 4.21313,6.58913 13.29492,14.54492 3.40395,2.98194 7.25507,6.39829 8.55859,7.59375 1.30345,1.19554 2.48764,2.17383 2.63282,2.17383 0.1451,0 1.3312,-0.97829 2.63476,-2.17383 1.30345,-1.19546 5.15464,-4.61181 8.55859,-7.59375 9.08164,-7.95579 11.47893,-10.57683 13.29688,-14.54492 1.67864,-3.66368 2.37596,-9.21094 1.61133,-12.82031 -1.37261,-6.47924 -6.6857,-10.77816 -13.33789,-10.79297 z m -352.67969,58.7793 c -4.33769,-0.0113 -8.32507,2.00091 -11.33984,5.7168 l -1.39454,1.71874 -1.06054,-1.28515 c -3.33714,-4.04485 -6.51194,-5.80614 -10.94922,-6.07422 -6.97278,-0.42149 -12.67462,3.90718 -14.11719,10.7168 -0.7646,3.60937 -0.067,9.15662 1.61133,12.82031 1.81807,3.96805 4.21325,6.58913 13.29492,14.54492 3.40392,2.9819 7.25703,6.39825 8.56055,7.59375 1.30344,1.19554 2.48764,2.17383 2.63281,2.17383 0.14513,0 1.33121,-0.97829 2.63477,-2.17383 1.30344,-1.1955 5.15463,-4.61185 8.55859,-7.59375 9.08164,-7.95579 11.47892,-10.57687 13.29688,-14.54492 1.6786,-3.66369 2.37596,-9.21094 1.61132,-12.82031 -1.37265,-6.47925 -6.68765,-10.77816 -13.33984,-10.79297 z m 78.37305,0 c -4.3377,-0.0113 -8.32503,2.00091 -11.33985,5.7168 l -1.39453,1.71874 -1.06055,-1.28515 c -3.3371,-4.04485 -6.51189,-5.80614 -10.94921,-6.07422 -6.97275,-0.42149 -12.67462,3.90718 -14.11719,10.7168 -0.76463,3.60937 -0.0674,9.15662 1.61133,12.82031 1.81807,3.96805 4.21325,6.58913 13.29492,14.54492 3.40392,2.9819 7.25702,6.39825 8.56055,7.59375 1.30341,1.19554 2.48764,2.17383 2.63281,2.17383 0.14513,0 1.33121,-0.97829 2.63476,-2.17383 1.30341,-1.1955 5.15465,-4.61185 8.5586,-7.59375 9.08168,-7.95579 11.47896,-10.57687 13.29687,-14.54492 1.67868,-3.66369 2.37597,-9.21094 1.61133,-12.82031 -1.37261,-6.47925 -6.68764,-10.77816 -13.33984,-10.79297 z m 78.37304,0 c -4.33764,-0.0113 -8.32502,2.00091 -11.33984,5.7168 l -1.39453,1.71874 -1.06055,-1.28515 c -3.33713,-4.04485 -6.51194,-5.80614 -10.94922,-6.07422 -6.97274,-0.42149 -12.67461,3.90718 -14.11719,10.7168 -0.7646,3.60937 -0.0674,9.15662 1.61133,12.82031 1.8181,3.96805 4.21509,6.58913 13.29688,14.54492 3.40392,2.9819 7.25503,6.39825 8.55859,7.59375 1.30344,1.19554 2.48761,2.17383 2.63281,2.17383 0.14514,0 1.33125,-0.97829 2.63477,-2.17383 1.30344,-1.1955 5.15463,-4.61185 8.55859,-7.59375 9.08162,-7.95579 11.47889,-10.57687 13.29688,-14.54492 1.67864,-3.66369 2.376,-9.21094 1.61133,-12.82031 -1.37261,-6.47925 -6.68767,-10.77816 -13.33985,-10.79297 z m 78.37305,0 c -4.33769,-0.0113 -8.32503,2.00091 -11.33984,5.7168 l -1.39454,1.71874 -1.06054,-1.28515 c -3.33714,-4.04485 -6.51194,-5.80614 -10.94922,-6.07422 -6.97278,-0.42149 -12.67462,3.90718 -14.11719,10.7168 -0.7646,3.60937 -0.067,9.15662 1.61133,12.82031 1.8181,3.96805 4.21512,6.58913 13.29688,14.54492 3.40392,2.9819 7.25507,6.39825 8.55859,7.59375 1.30344,1.19554 2.48764,2.17383 2.63281,2.17383 0.14514,0 1.33121,-0.97829 2.63477,-2.17383 1.30344,-1.1955 5.15463,-4.61185 8.55859,-7.59375 9.08168,-7.95579 11.47892,-10.57687 13.29688,-14.54492 1.67863,-3.66369 2.37596,-9.21094 1.61132,-12.82031 -1.37257,-6.47925 -6.68764,-10.77816 -13.33984,-10.79297 z m 78.37305,0 c -4.33765,-0.0113 -8.32503,2.00091 -11.33985,5.7168 l -1.39453,1.71874 -1.06055,-1.28515 c -3.33706,-4.04485 -6.5119,-5.80614 -10.94921,-6.07422 -6.97274,-0.42149 -12.67462,3.90718 -14.11719,10.7168 -0.76464,3.60937 -0.0674,9.15662 1.61133,12.82031 1.81806,3.96805 4.21508,6.58913 13.29687,14.54492 3.40392,2.9819 7.25507,6.39825 8.5586,7.59375 1.30344,1.19554 2.48764,2.17383 2.63281,2.17383 0.14513,0 1.33124,-0.97829 2.63476,-2.17383 1.30345,-1.1955 5.15464,-4.61185 8.5586,-7.59375 9.08167,-7.95579 11.47892,-10.57687 13.29687,-14.54492 1.67868,-3.66369 2.37597,-9.21094 1.61133,-12.82031 -1.37261,-6.47925 -6.68765,-10.77816 -13.33984,-10.79297 z m 78.37304,0 c -4.33765,-0.0113 -8.32502,2.00091 -11.33984,5.7168 l -1.39453,1.71874 -1.06055,-1.28515 c -3.33713,-4.04485 -6.51194,-5.80614 -10.94922,-6.07422 -6.97273,-0.42149 -12.67465,3.90718 -14.11718,10.7168 -0.76464,3.60937 -0.0674,9.15662 1.61132,12.82031 1.81811,3.96805 4.21509,6.58913 13.29688,14.54492 3.40392,2.9819 7.25503,6.39825 8.55859,7.59375 1.30341,1.19554 2.48764,2.17383 2.63282,2.17383 0.1451,0 1.33124,-0.97829 2.63476,-2.17383 1.30345,-1.1955 5.15464,-4.61185 8.55859,-7.59375 9.08164,-7.95579 11.47893,-10.57687 13.29688,-14.54492 1.67864,-3.66369 2.37401,-9.21094 1.60937,-12.82031 -1.37261,-6.47925 -6.68569,-10.77816 -13.33789,-10.79297 z M 88.658203,622.51953 v 20 h 58.037107 c 12.45398,35.87837 29.61026,69.9323 53.70313,99.61328 15.2563,18.44587 32.76367,35.46879 53.04687,48.25977 28.4439,14.38885 61.12475,22.60508 92.93555,16.625 13.8851,-2.68997 28.07093,-6.08295 40.18164,-13.54102 9.57388,-4.60804 19.90293,0.17195 28.08984,5.23047 34.8601,11.88295 74.10303,12.5753 108.25,-2.12109 16.01178,-5.99819 28.57727,-18.14325 41.4336,-28.99805 37.68874,-33.58204 64.32749,-77.76819 81.28906,-125.06836 H 700 v -20 z m 71.890627,20 h 471.07812 c -9.03566,24.35782 -20.5054,47.54293 -35.42383,69.06836 -4.24766,1.52168 -7.4194,5.09967 -8.44335,9.93359 -0.12416,0.58607 -0.19501,1.23634 -0.24415,1.90821 -16.1401,20.77322 -35.86153,39.82232 -60.15039,56.67187 -1.55851,0.7795 -3.13024,1.52676 -4.71093,2.25586 -0.047,-0.72597 -0.12074,-1.42607 -0.25391,-2.05469 -1.37261,-6.47928 -6.68765,-10.78006 -13.33984,-10.79492 -4.33765,-0.0113 -8.32503,2.00088 -11.33985,5.7168 l -1.39453,1.71875 -1.06055,-1.2832 c -3.33706,-4.04485 -6.5119,-5.80809 -10.94921,-6.07618 -6.97274,-0.42149 -12.67462,3.90907 -14.11719,10.71875 -0.76464,3.60934 -0.0674,9.15468 1.61133,12.81836 0.3276,0.71505 0.686,1.38834 1.09179,2.0586 -9.76323,0.59559 -19.98352,0.15225 -30.74609,-1.52344 0.087,-0.17755 0.17625,-0.35286 0.25977,-0.53516 1.67863,-3.66368 2.37596,-9.20902 1.61132,-12.81836 -1.37261,-6.47932 -6.68764,-10.78006 -13.33984,-10.79492 -4.33769,-0.0113 -8.32503,2.00088 -11.33984,5.7168 l -1.39454,1.71875 -1.06054,-1.2832 c -3.33714,-4.04485 -6.51194,-5.80809 -10.94922,-6.07618 -6.97278,-0.42149 -12.67462,3.90907 -14.11719,10.71875 -0.003,0.0138 -0.005,0.0291 -0.008,0.043 -3.9581,0.62555 -7.91694,2.33988 -11.875,5.35352 -5.17962,2.06028 -10.20024,3.7799 -15.08984,5.21875 1.06189,-3.44959 1.42478,-7.66988 0.80078,-10.61524 -1.37261,-6.47932 -6.68767,-10.78006 -13.33985,-10.79492 -4.33764,-0.0113 -8.32502,2.00088 -11.33984,5.7168 l -1.39453,1.71875 -1.06055,-1.2832 c -3.33713,-4.04485 -6.51194,-5.80809 -10.94922,-6.07618 -6.97274,-0.42149 -12.67461,3.90907 -14.11719,10.71875 -0.7646,3.60934 -0.0674,9.15468 1.61133,12.81836 0.49219,1.07425 1.0542,2.059 1.75977,3.07422 -10.57258,-0.90167 -20.51345,-3.15755 -30.05274,-6.27343 0.83553,-3.2391 1.07423,-6.95473 0.50977,-9.61915 -1.37261,-6.47928 -6.68764,-10.7801 -13.33984,-10.79492 -4.3377,-0.0113 -8.32503,2.00088 -11.33985,5.7168 l -1.39453,1.71875 -1.06055,-1.2832 c -3.3371,-4.04485 -6.51189,-5.80809 -10.94921,-6.07618 -0.75501,-0.0457 -1.48774,-0.0142 -2.20899,0.0488 -6.53898,-5.15034 -12.75671,-10.63033 -18.66992,-16.42383 1.67468,-1.48896 2.93238,-2.62564 4.86914,-4.32226 9.08163,-7.95579 11.47693,-10.5768 13.29492,-14.54492 1.67864,-3.66365 2.37597,-9.21098 1.61133,-12.82032 -1.37257,-6.47928 -6.6857,-10.77815 -13.33789,-10.79296 -4.33765,-0.0113 -8.32698,2.00095 -11.3418,5.71679 l -1.39453,1.71875 -1.06055,-1.2832 c -3.33713,-4.04489 -6.50998,-5.80809 -10.94726,-6.07617 -5.16897,-0.31243 -9.63475,1.99062 -12.18945,5.97461 -4.27144,-6.19929 -8.31488,-12.63372 -12.14258,-19.28907 1.40272,-1.28038 5.01103,-4.48381 8.32031,-7.38281 9.08164,-7.95579 11.47892,-10.57687 13.29688,-14.54492 1.6786,-3.66369 2.37596,-9.21098 1.61132,-12.82031 -1.37265,-6.47928 -6.68765,-10.77816 -13.33984,-10.79297 -4.33769,-0.0113 -8.32507,2.00092 -11.33984,5.7168 l -1.39454,1.71875 -1.06054,-1.28516 c -3.33714,-4.04489 -6.51194,-5.80614 -10.94922,-6.07422 -2.28166,-0.13795 -4.42536,0.23486 -6.33008,1.03516 -1.35883,-3.46875 -2.67046,-6.98579 -3.94531,-10.54102 z m 113.39258,9.42969 c -4.3377,-0.0113 -8.32503,2.00092 -11.33985,5.7168 l -1.39453,1.71875 -1.06055,-1.28516 c -3.3371,-4.04489 -6.51189,-5.80614 -10.94921,-6.07422 -6.97275,-0.42149 -12.67462,3.90711 -14.11719,10.7168 -0.76463,3.60933 -0.0674,9.15662 1.61133,12.82031 1.81807,3.96809 4.21325,6.58917 13.29492,14.54492 3.40392,2.98194 7.25702,6.39821 8.56055,7.59375 1.30341,1.19554 2.48764,2.17383 2.63281,2.17383 0.14513,0 1.33121,-0.97829 2.63476,-2.17383 1.30341,-1.1955 5.15465,-4.61181 8.5586,-7.59375 9.08168,-7.95579 11.47896,-10.57687 13.29687,-14.54492 1.67868,-3.66369 2.37597,-9.21098 1.61133,-12.82031 -1.37261,-6.47928 -6.68764,-10.77816 -13.33984,-10.79297 z m 78.37304,0 c -4.33764,-0.0113 -8.32502,2.00092 -11.33984,5.7168 l -1.39453,1.71875 -1.06055,-1.28516 c -3.33713,-4.04489 -6.51194,-5.80614 -10.94922,-6.07422 -6.97274,-0.42149 -12.67461,3.90711 -14.11719,10.7168 -0.7646,3.60933 -0.0674,9.15662 1.61133,12.82031 1.8181,3.96809 4.21509,6.58917 13.29688,14.54492 3.40392,2.98194 7.25503,6.39821 8.55859,7.59375 1.30344,1.19554 2.48761,2.17383 2.63281,2.17383 0.14514,0 1.33125,-0.97829 2.63477,-2.17383 1.30344,-1.1955 5.15463,-4.61181 8.55859,-7.59375 9.08162,-7.95579 11.47889,-10.57687 13.29688,-14.54492 1.67864,-3.66369 2.376,-9.21098 1.61133,-12.82031 -1.37261,-6.47928 -6.68767,-10.77816 -13.33985,-10.79297 z m 78.37305,0 c -4.33769,-0.0113 -8.32503,2.00092 -11.33984,5.7168 l -1.39454,1.71875 -1.06054,-1.28516 c -3.33714,-4.04489 -6.51194,-5.80614 -10.94922,-6.07422 -6.97278,-0.42149 -12.67462,3.90711 -14.11719,10.7168 -0.7646,3.60933 -0.067,9.15662 1.61133,12.82031 1.8181,3.96809 4.21512,6.58917 13.29688,14.54492 3.40392,2.98194 7.25507,6.39821 8.55859,7.59375 1.30344,1.19554 2.48764,2.17383 2.63281,2.17383 0.14514,0 1.33121,-0.97829 2.63477,-2.17383 1.30344,-1.1955 5.15463,-4.61181 8.55859,-7.59375 9.08168,-7.95579 11.47892,-10.57687 13.29688,-14.54492 1.67863,-3.66369 2.37596,-9.21098 1.61132,-12.82031 -1.37257,-6.47928 -6.68764,-10.77816 -13.33984,-10.79297 z m 78.37305,0 c -4.33765,-0.0113 -8.32503,2.00092 -11.33985,5.7168 l -1.39453,1.71875 -1.06055,-1.28516 c -3.33706,-4.04489 -6.5119,-5.80614 -10.94921,-6.07422 -6.97274,-0.42149 -12.67462,3.90711 -14.11719,10.7168 -0.76464,3.60933 -0.0674,9.15662 1.61133,12.82031 1.81806,3.96809 4.21508,6.58917 13.29687,14.54492 3.40392,2.98194 7.25507,6.39821 8.5586,7.59375 1.30344,1.19554 2.48764,2.17383 2.63281,2.17383 0.14513,0 1.33124,-0.97829 2.63476,-2.17383 1.30345,-1.1955 5.15464,-4.61181 8.5586,-7.59375 9.08167,-7.95579 11.47892,-10.57687 13.29687,-14.54492 1.67868,-3.66369 2.37597,-9.21098 1.61133,-12.82031 -1.37261,-6.47928 -6.68765,-10.77816 -13.33984,-10.79297 z m 78.37304,0 c -4.33765,-0.0113 -8.32502,2.00092 -11.33984,5.7168 l -1.39453,1.71875 -1.06055,-1.28516 c -3.33713,-4.04489 -6.51194,-5.80614 -10.94922,-6.07422 -6.97273,-0.42149 -12.67465,3.90711 -14.11718,10.7168 -0.76464,3.60933 -0.0674,9.15662 1.61132,12.82031 1.81811,3.96809 4.21509,6.58917 13.29688,14.54492 3.40392,2.98194 7.25503,6.39821 8.55859,7.59375 1.30341,1.19554 2.48764,2.17383 2.63282,2.17383 0.1451,0 1.33124,-0.97829 2.63476,-2.17383 1.30345,-1.1955 5.15464,-4.61181 8.55859,-7.59375 9.08164,-7.95579 11.47893,-10.57687 13.29688,-14.54492 1.67864,-3.66369 2.37401,-9.21098 1.60937,-12.82031 -1.37261,-6.47928 -6.68569,-10.77816 -13.33789,-10.79297 z m -274.30468,58.7793 c -4.33768,-0.0113 -8.32702,2.00095 -11.3418,5.71679 l -1.39453,1.71875 -1.06055,-1.2832 c -3.33714,-4.04489 -6.50998,-5.80809 -10.94726,-6.07617 -6.97278,-0.42146 -12.67462,3.90714 -14.11719,10.71679 -0.76459,3.60934 -0.0671,9.15667 1.61133,12.82032 1.81805,3.96812 4.21317,6.58913 13.29492,14.54492 3.40396,2.98189 7.25507,6.40016 8.55859,7.5957 1.30344,1.19558 2.48764,2.17383 2.63281,2.17383 0.14514,0 1.33316,-0.97825 2.63672,-2.17383 1.30344,-1.1955 5.15465,-4.61381 8.5586,-7.5957 9.08164,-7.95583 11.47697,-10.57683 13.29492,-14.54492 1.67864,-3.66365 2.376,-9.21098 1.61133,-12.82032 -1.37261,-6.47928 -6.68569,-10.77815 -13.33789,-10.79296 z m 78.37304,0 c -4.33765,-0.0113 -8.32702,2.00095 -11.34179,5.71679 l -1.39454,1.71875 -1.06054,-1.2832 c -3.33706,-4.04489 -6.50995,-5.80809 -10.94727,-6.07617 -6.9727,-0.42146 -12.67461,3.90714 -14.11719,10.71679 -0.7646,3.60934 -0.0674,9.15667 1.61133,12.82032 1.81806,3.96812 4.21314,6.58913 13.29493,14.54492 3.40388,2.98189 7.25511,6.40016 8.55859,7.5957 1.30348,1.19558 2.48764,2.17383 2.63281,2.17383 0.14514,0 1.33117,-0.97825 2.63477,-2.17383 1.3034,-1.1955 5.1546,-4.61381 8.55859,-7.5957 9.08164,-7.95583 11.47896,-10.57683 13.29688,-14.54492 1.67867,-3.66365 2.37596,-9.21098 1.61132,-12.82032 -1.37261,-6.47928 -6.68569,-10.77815 -13.33789,-10.79296 z m 78.37305,0 c -4.33765,-0.0113 -8.32698,2.00095 -11.3418,5.71679 l -1.39453,1.71875 -1.06055,-1.2832 c -3.33714,-4.04489 -6.50994,-5.80809 -10.94726,-6.07617 -6.97274,-0.42146 -12.67466,3.90714 -14.11719,10.71679 -0.76463,3.60934 -0.0673,9.15667 1.61133,12.82032 1.8181,3.96812 4.2131,6.58913 13.29492,14.54492 3.40388,2.98189 7.25504,6.40016 8.5586,7.5957 1.30344,1.19558 2.48764,2.17383 2.63281,2.17383 0.14513,0 1.33124,-0.97825 2.63476,-2.17383 1.30345,-1.1955 5.15464,-4.61381 8.5586,-7.5957 9.08164,-7.95583 11.47892,-10.57683 13.29687,-14.54492 1.67864,-3.66365 2.376,-9.21098 1.61133,-12.82032 -1.37261,-6.47928 -6.68569,-10.77815 -13.33789,-10.79296 z m 78.37305,0 c -4.33769,-0.0113 -8.32698,2.00095 -11.3418,5.71679 l -1.39453,1.71875 -1.06055,-1.2832 c -3.33709,-4.04489 -6.50995,-5.80809 -10.94726,-6.07617 -6.97274,-0.42146 -12.67462,3.90714 -14.11719,10.71679 -0.7646,3.60934 -0.067,9.15667 1.61133,12.82032 1.81806,3.96812 4.21313,6.58913 13.29492,14.54492 3.40395,2.98189 7.25507,6.40016 8.55859,7.5957 1.30345,1.19558 2.48764,2.17383 2.63282,2.17383 0.1451,0 1.3312,-0.97825 2.63476,-2.17383 1.30345,-1.1955 5.15464,-4.61381 8.55859,-7.5957 9.08164,-7.95583 11.47893,-10.57683 13.29688,-14.54492 1.67864,-3.66365 2.37596,-9.21098 1.61133,-12.82032 -1.37261,-6.47928 -6.6857,-10.77815 -13.33789,-10.79296 z"
         style="opacity:1;fill:#ff0000;fill-opacity:1;stroke:none;stroke-width:0.99999994px;stroke-linecap:butt;stroke-linejoin:miter;stroke-opacity:1" />
    </g>
  </g>
</svg>
