<?xml version="1.0" encoding="UTF-8" standalone="no"?>
<!-- Created with Inkscape (http://www.inkscape.org/) -->

<svg
   xmlns:dc="http://purl.org/dc/elements/1.1/"
   xmlns:cc="http://creativecommons.org/ns#"
   xmlns:rdf="http://www.w3.org/1999/02/22-rdf-syntax-ns#"
   xmlns:svg="http://www.w3.org/2000/svg"
   xmlns="http://www.w3.org/2000/svg"
   xmlns:sodipodi="http://sodipodi.sourceforge.net/DTD/sodipodi-0.dtd"
   xmlns:inkscape="http://www.inkscape.org/namespaces/inkscape"
   width="500mm"
   height="500mm"
   viewBox="0 0 500 500"
   version="1.1"
   id="svg8"
   inkscape:version="0.92.1 r15371"
   sodipodi:docname="red_swirls_splitmono.svg">
  <defs
     id="defs2" />
  <sodipodi:namedview
     id="base"
     pagecolor="#ffffff"
     bordercolor="#666666"
     borderopacity="1.0"
     inkscape:pageopacity="0.0"
     inkscape:pageshadow="2"
     inkscape:zoom="0.1767767"
     inkscape:cx="-140.52314"
     inkscape:cy="376.49907"
     inkscape:document-units="mm"
     inkscape:current-layer="layer1"
     showgrid="true"
     inkscape:window-width="1366"
     inkscape:window-height="715"
     inkscape:window-x="-8"
     inkscape:window-y="-8"
     inkscape:window-maximized="1">
    <inkscape:grid
       type="xygrid"
       id="grid6855" />
  </sodipodi:namedview>
  <metadata
     id="metadata5">
    <rdf:RDF>
      <cc:Work
         rdf:about="">
        <dc:format>image/svg+xml</dc:format>
        <dc:type
           rdf:resource="http://purl.org/dc/dcmitype/StillImage" />
        <dc:title></dc:title>
      </cc:Work>
    </rdf:RDF>
  </metadata>
  <g
     inkscape:label="Layer 1"
     inkscape:groupmode="layer"
     id="layer1"
     style="opacity:1"
     transform="translate(0,203)">
    <g
       id="g4491"
       transform="matrix(2.8351124,0,0,2.8351124,-53.800009,-321.30887)">
      <path
         sodipodi:nodetypes="ccccccccccc"
         inkscape:connector-curvature="0"
         id="path4529"
         d="m 86.129119,48.195375 c -3.242897,0.14027 -6.250077,-0.58832 -8.285274,2.40553 -0.826971,2.71154 0.41715,4.08749 1.870677,5.61258 7.664527,8.56647 15.944671,16.614929 17.941921,29.953879 0.11482,1.175581 0.33968,1.865091 1.34498,2.442131 3.042577,1.3125 6.844787,2.612821 8.747557,2.54708 1.3993,-0.331089 2.03425,-0.459531 1.57998,-2.34923 -2.70544,-11.244641 -6.71855,-21.97408 -13.531757,-31.52426 -0.88202,-1.6252 -1.731187,-3.09116 -2.525327,-4.55851 -1.3067,-2.38864 -3.34999,-4.17469 -7.142747,-4.5292 z"
         style="opacity:1;fill:#6a3c1f;fill-opacity:1;stroke:none;stroke-width:0.26499999;stroke-linecap:butt;stroke-linejoin:miter;stroke-miterlimit:4;stroke-dasharray:none;stroke-opacity:1" />
      <path
         inkscape:connector-curvature="0"
         id="path4531"
         transform="scale(0.26458333)"
         d="m 569.70703,164.38477 c -14.02178,13.35571 -26.2097,27.52605 -43.79297,39.29882 -33.90081,18.4534 -71.34308,35.00257 -92.63672,59.27149 -16.78439,20.5971 -21.01519,37.79584 -21.75976,54.04883 5.72957,-9.6214 13.58959,-28.03085 27.90039,-42.07032 17.52937,-17.197 34.52777,-29.31559 51.7168,-35.54882 37.27717,-14.47771 62.99663,-29.05099 76.78711,-52.14258 13.37941,60.98377 0.35704,88.6323 -44.58204,123.95508 -7.96516,6.63394 4.34614,5.90234 6.37696,6.51171 5.62616,0.4142 12.47202,1.30762 20.77148,-4.48046 10.59969,-7.43599 17.94028,-16.45291 23.66211,-26.25391 11.91882,-16.77055 17.25953,-24.61726 17.40625,-52.28711 0.68266,-30.64108 -8.82305,-52.06546 -21.84961,-70.30273 z m -35,77.85546 c -53.83113,14.62946 -93.42851,45.84931 -116.78515,95.71485 32.62087,-40.15329 71.78417,-71.75086 116.78515,-95.71485 z"
         style="opacity:1;fill:#3ab4a5;fill-opacity:1;stroke:none;stroke-width:1.00157475;stroke-linecap:butt;stroke-linejoin:miter;stroke-miterlimit:4;stroke-dasharray:none;stroke-opacity:1" />
      <path
         inkscape:connector-curvature="0"
         id="path9648"
         transform="scale(0.26458333)"
         d="m 503.91406,331.42969 c -1.02421,9.8e-4 -2.05037,0.0105 -3.07617,0.0332 -30.4391,0.27024 -59.92742,10.70413 -85.87305,26.10938 -15.49969,4.60628 -31.06893,-3.93868 -44.58398,-10.7461 -11.49653,-6.29563 -24.80385,-8.37804 -37.49805,-11.19922 -38.5702,-7.61779 -80.46886,-2.36328 -113.81836,19.29688 -30.5691,19.5423 -54.02108,48.78915 -70.86328,80.59765 -8.99823,17.95046 -14.15339,37.26199 -16.37695,56.99805 H 100 v 20 h 610 v -20 h -30.55469 c -4.48708,-32.24136 -16.38188,-63.41367 -35.99023,-89.56445 -13.63812,-18.21502 -29.79801,-34.93088 -48.4668,-47.92383 -28.24203,-14.08082 -59.31609,-23.64038 -91.07422,-23.60156 z m -4.52929,12.31445 c 3.61258,-0.009 7.22753,0.11391 10.84375,0.35742 -1.61231,1.06202 -3.22775,2.1157 -4.83594,3.19141 -81.12605,67.17605 -131.25293,47.59757 -205,0 -1.2639,-0.85616 -2.53158,-1.69307 -3.80078,-2.52735 21.8786,-0.91086 45.13155,2.81162 69.66797,10.85352 20.07464,11.46556 38.10958,18.16685 50.75585,12.29883 27.33642,-16.57261 54.79942,-24.10391 82.36915,-24.17383 z m 56.29296,9.69531 c 10.68201,3.59939 21.37647,8.1354 32.08399,13.54493 15.52463,12.00457 28.72969,24.9377 39.67187,38.77539 -50.00923,-23.75604 -86.38846,-2.31449 -122.04101,21.5332 -81.12605,67.17604 -131.25293,47.59755 -205,0 -33.0771,-22.40682 -67.9162,-37.60343 -108.2461,-30.33985 17.0621,-19.24572 35.76406,-32.9632 56.00196,-41.51171 18.6262,5.9547 36.25642,15.64916 53.67383,26.13671 71.19748,50.51623 123.35169,65.18574 203.57031,0 16.06382,-13.56617 32.77834,-23.23041 50.28515,-28.13867 z m -343.70898,75.94532 c 32.7545,0.21732 61.58071,15.1694 89.85352,32.19335 18.17733,12.89724 35.11113,23.44971 51.58984,30.94141 h -77.40039 c -20.14292,-10.63391 -41.2101,-17.48912 -63.97266,-17.40625 -19.48267,0.0709 -40.20684,5.22318 -62.65039,17.40625 h -3.52148 c 2.33354,-17.36262 7.2777,-34.66388 15.89453,-51.87695 17.8868,-8.0696 34.49984,-11.36205 50.20703,-11.25781 z m 370.94922,0.37304 c 22.90596,0.17541 47.16319,8.45441 73.05078,26.51953 4.28768,11.60839 7.38245,23.69304 9.31836,36.24219 h -25.30469 c -19.95738,-11.99005 -37.77957,-16.90296 -54.17969,-17.09765 -20.76142,-0.2465 -39.24287,7.06534 -56.90429,17.09765 h -70.85742 c 14.83451,-7.05504 30.47041,-17.22376 47.35156,-30.94141 24.20312,-20.43986 49.88026,-32.03201 77.52539,-31.82031 z M 100,632.51953 v 20 h 57.1875 c 12.41401,35.37191 29.4386,68.93378 53.22266,98.23438 15.25629,18.44587 32.76377,35.46878 53.04687,48.25976 28.4442,14.38885 61.12446,22.60508 92.93555,16.625 13.88513,-2.68996 28.07094,-6.08295 40.18164,-13.54101 9.57422,-4.60804 19.90274,0.17197 28.08984,5.23046 34.85995,11.88295 74.10288,12.5753 108.25,-2.12109 16.01178,-5.99818 28.57719,-18.14324 41.4336,-28.99805 37.32236,-33.25542 63.80775,-76.91001 80.79101,-123.68945 H 710 v -20 z m 176.01367,20 h 77.39844 c 34.48291,15.67692 66.96784,17.91094 104.62891,0 h 70.86328 c -7.95951,4.51992 -15.75406,9.5844 -23.51172,14.77344 -81.12605,67.17604 -131.25293,47.59755 -205,0 -8.00444,-5.4223 -16.11528,-10.41133 -24.37891,-14.77344 z m 363.94727,0 h 1.15429 c -0.0705,0.18775 -0.13818,0.37685 -0.20898,0.56445 -0.31662,-0.19304 -0.62976,-0.37496 -0.94531,-0.56445 z m -427.99219,16.86524 c 32.7545,0.21732 61.58071,15.1694 89.85352,32.19335 71.19748,50.51623 123.35169,65.18571 203.57031,0 37.16954,-31.3902 77.81702,-41.90952 123.72656,-20.85937 -6.27039,13.01548 -13.42722,25.60343 -21.65234,37.67773 -40.07233,-10.42095 -71.3439,8.34126 -102.07422,28.89649 -34.5309,28.59318 -63.44469,41.46114 -90.95508,43.14844 -5.64431,-2.09069 -11.28929,-2.41118 -16.93359,-0.34571 -30.97186,-3.14026 -61.24913,-19.65668 -97.11133,-42.80273 -30.5172,-20.67266 -62.53362,-35.21171 -98.97852,-31.63477 -8.1492,-12.97882 -15.39124,-26.88749 -21.80664,-41.64843 11.2507,-3.2789 22.00333,-4.69372 32.36133,-4.625 z m 369.51563,80.36914 c 0.32955,-0.002 0.66035,0.004 0.99023,0.008 -12.97561,13.97828 -27.88735,27.0237 -45.09766,38.96289 -19.22022,9.61285 -40.08894,15.47616 -63.60547,15.32422 10.09221,-6.05821 20.59002,-13.50492 31.6211,-22.46875 23.78404,-20.08596 48.99258,-31.62927 76.0918,-31.82422 z m -353.88086,0.84765 c 26.4512,3.90656 50.52945,16.7125 74.21875,30.97656 12.90379,9.15549 25.17627,17.11377 37.10937,23.65235 -26.4723,0.40841 -48.87158,-7.91338 -70.27148,-18.375 -15.2256,-10.50199 -28.86505,-22.63359 -41.05664,-36.25391 z"
         style="opacity:1;fill:#ff0000;fill-opacity:1;stroke:none;stroke-width:0.99999994px;stroke-linecap:butt;stroke-linejoin:miter;stroke-opacity:1" />
    </g>
  </g>
</svg>
