<svg width="466" height="398" viewBox="0 0 466 398" fill="none" xmlns="http://www.w3.org/2000/svg">
<path fill-rule="evenodd" clip-rule="evenodd" d="M0.0299683 -9.40375H168.39V185.155H0.0299683V-9.40375Z" fill="#4AF6CD"/>
<path opacity="0.0654018" d="M59.6 2.39999C78.1333 2.39999 94.0667 8.26666 107.4 20L89.2 39C84.1333 35.4 79.5333 32.8 75.4 31.2C71.4 29.4667 66.8 28.6 61.6 28.6C51.6 28.6 43.7333 32.4667 38 40.2C32.4 47.9333 29.6 59.7333 29.6 75.6C29.6 87.2 30.5333 96.4 32.4 103.2C34.2667 109.867 37.0667 114.667 40.8 117.6C44.6667 120.533 49.6 122 55.6 122C61.6 122 67.0667 120.733 72 118.2V89.6H56.2L52.6 64.2H107.8V133.4C100.6 138.2 92.4667 141.933 83.4 144.6C74.3333 147.267 65.4 148.6 56.6 148.6C13.1333 148.6 -8.6 124.2 -8.6 75.4C-8.6 60.2 -5.66667 47.1333 0.2 36.2C6.2 25.1333 14.3333 16.7333 24.6 11C34.8667 5.26666 46.5333 2.39999 59.6 2.39999ZM184.883 2.39999C205.016 2.39999 220.683 8.79999 231.883 21.6C243.083 34.4 248.683 52.3333 248.683 75.4C248.683 90.4667 246.149 103.533 241.083 114.6C236.149 125.533 228.883 133.933 219.283 139.8C209.683 145.667 198.216 148.6 184.883 148.6C164.749 148.6 149.083 142.2 137.883 129.4C126.816 116.6 121.283 98.6 121.283 75.4C121.283 60.3333 123.749 47.3333 128.683 36.4C133.749 25.4667 141.016 17.0667 150.483 11.2C160.083 5.33332 171.549 2.39999 184.883 2.39999ZM184.883 29C176.216 29 169.816 32.6 165.683 39.8C161.683 47 159.683 58.8667 159.683 75.4C159.683 91.9333 161.749 103.867 165.883 111.2C170.016 118.4 176.349 122 184.883 122C193.683 122 200.083 118.4 204.083 111.2C208.083 104 210.083 92.0667 210.083 75.4C210.083 58.8667 208.083 47 204.083 39.8C200.083 32.6 193.683 29 184.883 29ZM44.8 158.4C55.3333 158.4 64.6 159.933 72.6 163C80.7333 166.067 88 170.667 94.4 176.8L77.8 196.4C68.2 188.8 58.1333 185 47.6 185C42.1333 185 37.9333 186.067 35 188.2C32.2 190.2 30.8 193.067 30.8 196.8C30.8 199.467 31.5333 201.667 33 203.4C34.4667 205.133 36.9333 206.8 40.4 208.4C43.8667 210 49.3333 212 56.8 214.4C71.0667 218.933 81.4667 224.667 88 231.6C94.6667 238.4 98 247.867 98 260C98 268.8 95.7333 276.6 91.2 283.4C86.6667 290.067 80.0667 295.267 71.4 299C62.8667 302.733 52.8 304.6 41.2 304.6C19.0667 304.6 1 297.867 -13 284.4L5.2 264.2C16.2667 273.267 27.8 277.8 39.8 277.8C46.0667 277.8 50.9333 276.467 54.4 273.8C57.8667 271 59.6 267.333 59.6 262.8C59.6 259.6 58.9333 257 57.6 255C56.2667 252.867 53.8667 251 50.4 249.4C47.0667 247.667 42.1333 245.8 35.6 243.8C19.8667 238.867 8.8 232.933 2.4 226C-4 219.067 -7.2 210.333 -7.2 199.8C-7.2 191.533 -5 184.267 -0.6 178C3.93333 171.733 10.1333 166.933 18 163.6C26 160.133 34.9333 158.4 44.8 158.4ZM222.816 254.4C222.816 264 220.682 272.6 216.416 280.2C212.282 287.8 206.016 293.8 197.616 298.2C189.216 302.467 178.949 304.6 166.816 304.6C148.416 304.6 134.482 300.133 125.016 291.2C115.549 282.133 110.816 269.867 110.816 254.4V162H147.816V253.2C147.816 261.6 149.282 267.8 152.216 271.8C155.282 275.667 160.149 277.6 166.816 277.6C173.482 277.6 178.282 275.6 181.216 271.6C184.149 267.6 185.616 261.467 185.616 253.2V162H222.816V254.4ZM289.508 249.8H279.308V301H242.308V162H290.508C310.108 162 324.708 165.533 334.308 172.6C344.041 179.667 348.908 190.533 348.908 205.2C348.908 214 346.841 221.333 342.708 227.2C338.708 233.067 332.241 238.333 323.308 243L357.908 301H316.708L289.508 249.8ZM279.308 224.6H291.708C304.508 224.6 310.908 218.133 310.908 205.2C310.908 199.2 309.108 194.8 305.508 192C302.041 189.2 296.774 187.8 289.708 187.8H279.308V224.6ZM366.331 301V162H451.731L447.931 188.2H403.331V221.6H442.531V247.8H403.331V301H366.331Z" fill="white"/>
<path d="M61.4306 137.12L69.2906 138.26V152.48H78.1706V140.06H85.7906V152.48H95.2706V137.3H103.131V163.58H61.4306V137.12ZM103.131 99.2336V113.214L71.7506 123.774L73.0106 123.594C75.7706 123.194 78.3706 122.894 80.8106 122.694C83.2106 122.454 85.9506 122.334 89.0306 122.334H103.131V132.174H61.4306V118.494L92.9306 107.574C89.9306 108.054 87.2306 108.434 84.8306 108.714C82.4306 108.954 79.6706 109.074 76.5506 109.074H61.4306V99.2336H103.131ZM61.4306 80.26C61.4306 73.66 62.9306 68.36 65.9306 64.36C68.8906 60.36 74.2906 58.36 82.1306 58.36C96.1306 58.36 103.131 65.38 103.131 79.42V92.74H61.4306V80.26ZM69.3506 81.64H95.2106V78.76C95.2106 75.72 94.2506 73.48 92.3306 72.04C90.4106 70.56 87.0106 69.82 82.1306 69.82C78.7706 69.82 76.1706 70.18 74.3306 70.9C72.4506 71.58 71.1506 72.58 70.4306 73.9C69.7106 75.18 69.3506 76.82 69.3506 78.82V81.64Z" fill="white"/>
<path d="M108 392.76H66.3V367.14L74.16 368.28V381.66H84.18V369.9H92.04V381.66H108V392.76ZM92.64 349.42V352.48H108V363.58H66.3V349.12C66.3 343.24 67.36 338.86 69.48 335.98C71.6 333.06 74.86 331.6 79.26 331.6C81.9 331.6 84.1 332.22 85.86 333.46C87.62 334.66 89.2 336.6 90.6 339.28L108 328.9V341.26L92.64 349.42ZM85.08 352.48V348.76C85.08 344.92 83.14 343 79.26 343C77.46 343 76.14 343.54 75.3 344.62C74.46 345.66 74.04 347.24 74.04 349.36V352.48H85.08ZM65.22 309.734C65.22 303.694 67.14 298.994 70.98 295.634C74.82 292.274 80.2 290.594 87.12 290.594C91.64 290.594 95.56 291.354 98.88 292.874C102.16 294.354 104.68 296.534 106.44 299.414C108.2 302.294 109.08 305.734 109.08 309.734C109.08 315.774 107.16 320.474 103.32 323.834C99.48 327.154 94.08 328.814 87.12 328.814C82.6 328.814 78.7 328.074 75.42 326.594C72.14 325.074 69.62 322.894 67.86 320.054C66.1 317.174 65.22 313.734 65.22 309.734ZM73.2 309.734C73.2 312.334 74.28 314.254 76.44 315.494C78.6 316.694 82.16 317.294 87.12 317.294C92.08 317.294 95.66 316.674 97.86 315.434C100.02 314.194 101.1 312.294 101.1 309.734C101.1 307.094 100.02 305.174 97.86 303.974C95.7 302.774 92.12 302.174 87.12 302.174C82.16 302.174 78.6 302.774 76.44 303.974C74.28 305.174 73.2 307.094 73.2 309.734ZM108 252.828V266.808L76.62 277.368L77.88 277.188C80.64 276.788 83.24 276.488 85.68 276.288C88.08 276.048 90.82 275.928 93.9 275.928H108V285.768H66.3V272.088L97.8 261.168C94.8 261.648 92.1 262.028 89.7 262.308C87.3 262.548 84.54 262.668 81.42 262.668H66.3V252.828H108ZM66.3 216.634L74.76 217.774V227.614H108V238.714H74.76L74.76 249.154H66.3V216.634ZM93.3 217.35H85.14V197.61H93.3V217.35Z" fill="white"/>
<rect x="83.2077" y="195.342" width="20.3727" height="1.00214" transform="rotate(-90 83.2077 195.342)" fill="white"/>
</svg>
